#!OML:ASF X:\für Bonn\!DataBase\2005_08_10_Bjorn_Final\c3d\bjorn.ASF
:FULLY-SPECIFIED
:DEGREES
106
root -17.8157 19.4735 -0.0231491 1893.75 -87.2316 -452.408
lowerback -3.62625 7.76226 -3.79115
upperback 6.76168 11.0402 -9.49651
thorax 10.6063 5.3547 -6.7902
lowerneck -6.46981 -10.8161 5.48936
upperneck 2.68472 -15.241 5.32634
head 1.94358 -7.45604 0.237818
rclavicle -6.04305e-014 3.81667e-014
rhumerus 47.8581 -17.7782 -52.0855
rradius 36.2236
rwrist -25.6932
rhand -12.5182 9.89835
rfingers 7.12502
rthumb 13.5576 -19.6403
lclavicle -6.04305e-014 3.81667e-014
lhumerus -21.0779 -1.50067 78.3244
lradius 24.8357
lwrist -15.965
lhand -23.9468 -9.17424
lfingers 7.12502
lthumb 2.52872 20.7905
rfemur -4.52576 -7.87653 17.6305
rtibia 38.9674
rfoot -10.0166 12.0737
rtoes -14.2405
lfemur -17.2893 6.05164 -16.4719
ltibia 27.0269
lfoot -3.33652 -12.0143
ltoes -1.37461
107
root -17.856 19.4778 -0.0178806 1891.5 -87.1794 -450.097
lowerback -3.66726 7.7867 -3.78928
upperback 6.83176 11.0846 -9.51811
thorax 10.7231 5.37601 -6.80333
lowerneck -6.57047 -10.8678 5.59033
upperneck 2.64122 -15.3266 5.35412
head 1.94123 -7.49837 0.224288
rclavicle 1.43125e-013 -1.52667e-013
rhumerus 47.9088 -17.3601 -51.0667
rradius 35.6383
rwrist -25.5157
rhand -11.0948 9.42086
rfingers 7.12502
rthumb 14.9291 -20.0211
lclavicle 1.43125e-013 -1.52667e-013
lhumerus -20.8282 -1.30921 78.2974
lradius 24.5094
lwrist -16.3717
lhand -23.682 -9.2453
lfingers 7.12502
lthumb 2.78446 20.7163
rfemur -4.85845 -8.00727 17.8327
rtibia 38.5717
rfoot -10.5957 12.2731
rtoes -14.1342
lfemur -17.2183 6.11702 -16.4259
ltibia 27.0082
lfoot -3.38147 -12.1965
ltoes -0.98322
108
root -17.8948 19.4792 -0.0131099 1889.15 -87.1389 -447.708
lowerback -3.67808 7.81448 -3.79447
upperback 6.89856 11.1302 -9.54663
thorax 10.8188 5.39791 -6.82392
lowerneck -6.65147 -10.9213 5.66985
upperneck 2.62185 -15.4143 5.39955
head 1.94664 -7.54065 0.219225
rclavicle -3.81667e-014 2.8625e-014
rhumerus 47.9237 -16.9002 -50.0564
rradius 35.0771
rwrist -25.239
rhand -9.69757 8.99058
rfingers 7.12502
rthumb 16.2749 -20.3464
lclavicle -3.81667e-014 2.8625e-014
lhumerus -20.5625 -1.09812 78.2656
lradius 24.1467
lwrist -16.8164
lhand -23.5312 -9.18981
lfingers 7.12502
lthumb 2.93012 20.7698
rfemur -5.15219 -8.11053 18.0189
rtibia 38.1779
rfoot -11.1844 12.4282
rtoes -14.157
lfemur -17.1469 6.16764 -16.3962
ltibia 27.0145
lfoot -3.46749 -12.3726
ltoes -0.749504
109
root -17.9335 19.4805 -0.00708963 1887.06 -87.0927 -445.584
lowerback -3.68324 7.84099 -3.80428
upperback 6.95636 11.1723 -9.55265
thorax 10.8936 5.41697 -6.81802
lowerneck -6.69893 -10.9794 5.68315
upperneck 2.60837 -15.5008 5.46461
head 1.95519 -7.5825 0.231193
rclavicle 5.725e-014 -2.54444e-014
rhumerus 47.9374 -16.4245 -49.095
rradius 34.5595
rwrist -24.8643
rhand -8.30962 8.57262
rfingers 7.12502
rthumb 17.6109 -20.6498
lclavicle 5.725e-014 -2.54444e-014
lhumerus -20.5007 -1.06329 78.2975
lradius 24.0319
lwrist -17.119
lhand -23.4 -8.99708
lfingers 7.12502
lthumb 3.05677 20.9608
rfemur -5.4043 -8.21817 18.1793
rtibia 37.7717
rfoot -11.6864 12.6547
rtoes -13.7572
lfemur -17.0681 6.209 -16.3672
ltibia 27.0417
lfoot -3.53938 -12.5351
ltoes -0.269904
110
root -17.9702 19.4804 -0.00157807 1885.05 -87.0013 -443.561
lowerback -3.65388 7.86648 -3.75189
upperback 6.98724 11.2039 -9.57893
thorax 10.9334 5.43835 -6.87438
lowerneck -6.67917 -11.0351 5.79016
upperneck 2.57285 -15.5844 5.51094
head 1.93549 -7.6252 0.230029
rclavicle -2.70347e-014 1.27222e-014
rhumerus 47.9372 -15.9975 -48.3247
rradius 34.0782
rwrist -24.3269
rhand -6.94744 8.14015
rfingers 7.12502
rthumb 18.9214 -20.9595
lclavicle -2.70347e-014 1.27222e-014
lhumerus -20.5608 -1.2422 78.2769
lradius 24.0746
lwrist -17.2363
lhand -23.2393 -8.66306
lfingers 7.12502
lthumb 3.21202 21.2925
rfemur -5.63746 -8.31298 18.3878
rtibia 37.3644
rfoot -12.1894 12.8594
rtoes -13.6491
lfemur -17.0044 6.27901 -16.2964
ltibia 27.0921
lfoot -3.63298 -12.7028
ltoes -0.104952
111
root -18.0069 19.4811 0.00394586 1883.37 -86.9084 -441.855
lowerback -3.66355 7.88415 -3.72194
upperback 7.03798 11.2316 -9.5784
thorax 11.0077 5.45391 -6.88419
lowerneck -6.66706 -11.071 5.82952
upperneck 2.51071 -15.6372 5.59936
head 1.91762 -7.65311 0.252173
rclavicle 2.38542e-014 2.8625e-014
rhumerus 47.9875 -15.5587 -47.5856
rradius 33.6495
rwrist -23.7741
rhand -5.64556 7.7134
rfingers 7.12502
rthumb 20.1731 -21.2592
lclavicle 2.38542e-014 2.8625e-014
lhumerus -20.6025 -1.25037 78.2695
lradius 24.0473
lwrist -17.4626
lhand -23.1416 -8.46841
lfingers 7.12502
lthumb 3.30635 21.4857
rfemur -5.85788 -8.35874 18.5979
rtibia 36.9482
rfoot -12.6912 13.044
rtoes -13.6831
lfemur -16.9335 6.29022 -16.2155
ltibia 27.1543
lfoot -3.75768 -12.8474
ltoes 0.0486542
112
root -18.0422 19.4812 0.00962155 1881.62 -86.8105 -440.091
lowerback -3.65854 7.89613 -3.68898
upperback 7.07053 11.2484 -9.57884
thorax 11.0516 5.46496 -6.90027
lowerneck -6.61615 -11.1187 5.84511
upperneck 2.46447 -15.7017 5.6949
head 1.90088 -7.6868 0.281312
rclavicle 0 1.36764e-013
rhumerus 48.0413 -15.1406 -46.9727
rradius 33.2391
rwrist -23.1315
rhand -4.36137 7.18556
rfingers 7.12502
rthumb 21.4069 -21.6518
lclavicle 0 1.36764e-013
lhumerus -20.6872 -1.20797 78.2279
lradius 24.0217
lwrist -17.6976
lhand -23.006 -8.30671
lfingers 7.12502
lthumb 3.43733 21.6453
rfemur -6.07659 -8.42023 18.797
rtibia 36.5405
rfoot -13.0455 13.3024
rtoes -13.446
lfemur -16.8852 6.33432 -16.1383
ltibia 27.2286
lfoot -3.8303 -13.0166
ltoes 0.459401
113
root -18.0771 19.4813 0.0150441 1879.54 -86.7249 -438.014
lowerback -3.61505 7.91061 -3.645
upperback 7.09628 11.2636 -9.60436
thorax 11.0733 5.47795 -6.95548
lowerneck -6.58418 -11.1629 5.90154
upperneck 2.4596 -15.7688 5.77816
head 1.89675 -7.71955 0.29817
rclavicle -1.90833e-014 6.36111e-014
rhumerus 48.0402 -14.749 -46.4161
rradius 32.8919
rwrist -22.5198
rhand -3.06419 6.60408
rfingers 7.12502
rthumb 22.6524 -22.0866
lclavicle -1.90833e-014 6.36111e-014
lhumerus -20.771 -1.19185 78.1449
lradius 23.9571
lwrist -17.8982
lhand -22.8876 -8.17407
lfingers 7.12502
lthumb 3.55165 21.7761
rfemur -6.25801 -8.453 18.9734
rtibia 36.1413
rfoot -13.4103 13.5389
rtoes -13.3352
lfemur -16.812 6.40174 -16.0863
ltibia 27.3046
lfoot -3.95395 -13.2156
ltoes 0.479443
114
root -18.111 19.4797 0.0202009 1877.54 -86.6547 -436.016
lowerback -3.57936 7.93335 -3.62501
upperback 7.11811 11.2921 -9.6355
thorax 11.0934 5.4954 -7.00121
lowerneck -6.5394 -11.2175 5.98113
upperneck 2.43751 -15.8506 5.87631
head 1.88424 -7.76049 0.317326
rclavicle -1.24042e-013 6.36111e-015
rhumerus 47.9759 -14.3526 -45.829
rradius 32.6217
rwrist -22.0379
rhand -1.77991 6.01071
rfingers 7.12502
rthumb 23.8845 -22.5241
lclavicle -1.24042e-013 6.36111e-015
lhumerus -20.838 -1.14687 78.0436
lradius 23.8391
lwrist -18.1706
lhand -22.7448 -8.07108
lfingers 7.12502
lthumb 3.68956 21.8767
rfemur -6.41901 -8.48382 19.1141
rtibia 35.7629
rfoot -13.6517 13.8027
rtoes -13.0176
lfemur -16.7476 6.42866 -16.05
ltibia 27.3922
lfoot -4.0345 -13.3891
ltoes 0.867169
115
root -18.1427 19.4769 0.0237266 1875.18 -86.595 -433.675
lowerback -3.53477 7.94574 -3.63742
upperback 7.16276 11.3088 -9.65929
thorax 11.1244 5.50347 -7.02391
lowerneck -6.49427 -11.2672 5.97786
upperneck 2.40878 -15.9228 6.03978
head 1.88242 -7.79607 0.367607
rclavicle -1.31993e-013 9.54166e-015
rhumerus 47.9179 -13.9729 -45.294
rradius 32.4191
rwrist -21.6542
rhand -0.502888 5.42866
rfingers 7.12502
rthumb 25.1086 -22.9404
lclavicle -1.31993e-013 9.54166e-015
lhumerus -20.9046 -1.09647 77.9408
lradius 23.7393
lwrist -18.3918
lhand -22.6203 -7.99308
lfingers 7.12502
lthumb 3.80979 21.9526
rfemur -6.5136 -8.4737 19.2407
rtibia 35.3981
rfoot -13.9525 14.0248
rtoes -12.9763
lfemur -16.6762 6.40313 -16.0259
ltibia 27.4888
lfoot -4.12805 -13.5447
ltoes 1.10545
116
root -18.1731 19.4742 0.0269781 1872.57 -86.527 -431.062
lowerback -3.48294 7.96272 -3.64887
upperback 7.16299 11.3281 -9.69793
thorax 11.104 5.51444 -7.06467
lowerneck -6.37313 -11.327 6.00164
upperneck 2.35683 -16.0034 6.21765
head 1.85906 -7.8383 0.424173
rclavicle -1.25632e-013 2.8625e-014
rhumerus 47.7424 -13.5552 -44.6592
rradius 32.2765
rwrist -21.4808
rhand 0.747728 4.81891
rfingers 7.12502
rthumb 26.3064 -23.377
lclavicle -1.25632e-013 2.8625e-014
lhumerus -21.0253 -1.03121 77.8096
lradius 23.6331
lwrist -18.6458
lhand -22.4527 -7.90646
lfingers 7.12502
lthumb 3.97162 22.0363
rfemur -6.62573 -8.48996 19.3561
rtibia 35.0496
rfoot -14.2014 14.2832
rtoes -12.7275
lfemur -16.6541 6.46146 -16.0187
ltibia 27.5979
lfoot -4.23291 -13.765
ltoes 1.20677
117
root -18.2038 19.4711 0.0299872 1870.25 -86.4529 -428.742
lowerback -3.45514 7.99103 -3.64502
upperback 7.16572 11.3654 -9.74433
thorax 11.1086 5.53564 -7.11687
lowerneck -6.29209 -11.3901 6.06724
upperneck 2.33944 -16.0949 6.35344
head 1.84687 -7.88419 0.458285
rclavicle 7.95139e-015 -4.45278e-014
rhumerus 47.5344 -13.157 -44.0424
rradius 32.1511
rwrist -21.397
rhand 1.96668 4.34245
rfingers 7.12502
rthumb 27.4727 -23.6738
lclavicle 7.95139e-015 -4.45278e-014
lhumerus -21.1286 -1.00378 77.6514
lradius 23.5112
lwrist -18.918
lhand -22.2619 -7.82744
lfingers 7.12502
lthumb 4.15583 22.1118
rfemur -6.72166 -8.39573 19.4626
rtibia 34.7202
rfoot -14.3486 14.5477
rtoes -11.7789
lfemur -16.6279 6.48281 -16.0003
ltibia 27.7065
lfoot -4.31103 -13.9754
ltoes 1.47609
118
root -18.2339 19.4682 0.0336522 1867.87 -86.3696 -426.331
lowerback -3.45493 8.00717 -3.64673
upperback 7.15032 11.3886 -9.78943
thorax 11.1055 5.54951 -7.16344
lowerneck -6.15343 -11.4557 6.11405
upperneck 2.29114 -16.1821 6.5144
head 1.81862 -7.93048 0.507638
rclavicle 5.88403e-014 -4.45278e-014
rhumerus 47.24 -12.6129 -43.242
rradius 32.1475
rwrist -21.5717
rhand 3.14568 3.74913
rfingers 7.12502
rthumb 28.5998 -24.0827
lclavicle 5.88403e-014 -4.45278e-014
lhumerus -21.2608 -0.888669 77.4751
lradius 23.3653
lwrist -19.2264
lhand -22.0992 -7.78856
lfingers 7.12502
lthumb 4.313 22.1475
rfemur -6.83407 -8.29252 19.5626
rtibia 34.404
rfoot -14.463 14.8049
rtoes -10.9084
lfemur -16.6314 6.47306 -15.9938
ltibia 27.8149
lfoot -4.39498 -14.144
ltoes 1.6997
